HIERARCHY
ROOT Hips
{
	OFFSET -3.958830 18.904000 13.208200
	CHANNELS 6 Xposition Yposition Zposition Zrotation Yrotation Xrotation 
	JOINT LHipJoint
	{
		OFFSET 0.000000 0.000000 0.000000
		CHANNELS 3 Zrotation Yrotation Xrotation
		JOINT LeftUpLeg
		{
			OFFSET 1.800000 -1.400000 0.085000
			CHANNELS 3 Zrotation Yrotation Xrotation
			JOINT LeftLeg
			{
				OFFSET 2.215000 -6.000000 0.000000
				CHANNELS 3 Zrotation Yrotation Xrotation
				JOINT LeftFoot
				{
					OFFSET 2.500000 -6.900000 0.000000
					CHANNELS 3 Zrotation Yrotation Xrotation
					JOINT LeftToeBase
					{
						OFFSET 0.200000 -0.500000 1.950000
						CHANNELS 3 Zrotation Yrotation Xrotation
						End Site
						{
							OFFSET 0.000000 0.000000 0.000000
						}
					}
				}
			}
		}
	}
	JOINT RHipJoint
	{
		OFFSET 0.000000 0.000000 0.000000
		CHANNELS 3 Zrotation Yrotation Xrotation
		JOINT RightUpLeg
		{
			OFFSET -1.800000 -1.400000 0.085000
			CHANNELS 3 Zrotation Yrotation Xrotation
			JOINT RightLeg
			{
				OFFSET -2.215000 -6.000000 0.000000
				CHANNELS 3 Zrotation Yrotation Xrotation
				JOINT RightFoot
				{
					OFFSET -2.500000 -6.900000 0.000000
					CHANNELS 3 Zrotation Yrotation Xrotation
					JOINT RightToeBase
					{
						OFFSET -0.200000 -0.500000 1.950000
						CHANNELS 3 Zrotation Yrotation Xrotation
						End Site
						{
							OFFSET 0.000000 0.000000 0.000000
						}
					}
				}
			}
		}
	}
	JOINT LowerBack
	{
		OFFSET 0.000000 0.000000 0.000000
		CHANNELS 3 Zrotation Yrotation Xrotation
		JOINT Spine
		{
			OFFSET -0.087000 1.940000 -0.288900
			CHANNELS 3 Zrotation Yrotation Xrotation
			JOINT Spine1
			{
				OFFSET 0.000000 1.950000 0.060000
				CHANNELS 3 Zrotation Yrotation Xrotation
				JOINT Neck
				{
					OFFSET 0.000000 0.000000 0.000000
					CHANNELS 3 Zrotation Yrotation Xrotation
					JOINT Neck1
					{
						OFFSET 0.000000 1.600000 0.340000
						CHANNELS 3 Zrotation Yrotation Xrotation
						JOINT Head
						{
							OFFSET 0.000000 1.667000 -0.240000
							CHANNELS 3 Zrotation Yrotation Xrotation
							End Site
							{
								OFFSET 0.000000 0.000000 0.000000
							}
						}
					}
				}
				JOINT LeftShoulder
				{
					OFFSET 0.000000 0.000000 0.000000
					CHANNELS 3 Zrotation Yrotation Xrotation
					JOINT LeftArm
					{
						OFFSET 2.700000 1.550000 -0.730000
						CHANNELS 3 Zrotation Yrotation Xrotation
						JOINT LeftForeArm
						{
							OFFSET 5.450000 0.000000 0.000000
							CHANNELS 3 Zrotation Yrotation Xrotation
							JOINT LeftHand
							{
								OFFSET 3.450000 0.000000 0.000000
								CHANNELS 3 Zrotation Yrotation Xrotation
								JOINT LeftHandIndex1
								{
									OFFSET 0.750000 0.000000 0.000000
									CHANNELS 3 Zrotation Yrotation Xrotation
									End Site
									{
										OFFSET 0.000000 0.000000 0.000000
									}
								}
							}
						}
					}
				}
				JOINT RightShoulder
				{
					OFFSET 0.000000 0.000000 0.000000
					CHANNELS 3 Zrotation Yrotation Xrotation
					JOINT RightArm
					{
						OFFSET -2.700000 1.550000 -0.730000
						CHANNELS 3 Zrotation Yrotation Xrotation
						JOINT RightForeArm
						{
							OFFSET -5.450000 0.000000 0.000000
							CHANNELS 3 Zrotation Yrotation Xrotation
							JOINT RightHand
							{
								OFFSET -3.450000 0.000000 0.000000
								CHANNELS 3 Zrotation Yrotation Xrotation
								JOINT RightHandIndex1
								{
									OFFSET -0.750000 0.000000 0.000000
									CHANNELS 3 Zrotation Yrotation Xrotation
									End Site
									{
										OFFSET 0.000000 0.000000 0.000000
									}
								}
							}
						}
					}
				}
			}
		}
	}
}
MOTION
Frames: 7
Frame Time: 0.016667
1.426070 18.160080 0.252340 -3.177661 -29.404031 -15.102424 -15.593678 11.575865 2.019682 3.558046 2.118116 3.961205 -14.255807 7.521166 5.971105 -0.200320 5.262249 2.765413 0.281340 0.185540 0.191030 18.697281 -5.859803 8.134310 2.086170 37.565343 -61.470765 -4.070697 -14.904112 104.082864 -3.322555 -15.526399 -0.306846 0.153710 0.021140 -0.042000 -4.326452 -3.391054 -9.696831 20.438865 -5.092706 45.319400 -4.189678 0.964019 2.933574 0.216029 -10.525240 -11.017874 -29.456436 12.633111 44.425684 -7.220050 3.543830 -18.255830 -25.964092 -16.169284 0.790307 -7.091115 -5.467755 -10.558693 22.052042 -72.943427 -16.056467 -3.385845 2.642712 0.704930 -0.147660 0.138010 0.025580 25.195580 23.576914 9.374810 35.657258 10.327018 -9.809834 17.188539 43.543060 4.349528 1.964752 -1.208827 -0.290600 0.450410 0.156100 -0.222170 
1.432760 18.157270 0.249060 -3.149489 -30.081095 -15.037359 -15.615651 11.572546 2.003063 3.484407 2.116622 3.781920 -14.237366 7.529359 6.040269 -0.199841 5.252790 2.770576 0.276990 0.179040 0.187420 18.686877 -5.795940 8.187676 2.448068 37.982549 -61.360218 -4.644057 -14.460177 104.689098 -3.328607 -15.539560 -0.306551 0.149680 0.026060 -0.038960 -4.312761 -3.449765 -9.714143 20.472354 -4.919844 45.583208 -3.950986 1.135189 2.879798 0.189327 -10.620492 -11.095872 -29.701025 12.793143 44.116567 -7.386180 3.661360 -18.000090 -25.865769 -16.167453 0.811345 -6.692624 -5.298117 -10.460605 21.355890 -72.779133 -15.484140 -3.393252 2.660101 0.700210 -0.142660 0.134310 0.027100 25.170798 23.733614 9.434741 35.130892 10.329601 -9.722819 17.472289 43.404533 4.463779 1.965052 -1.216840 -0.290170 0.447240 0.157280 -0.220380 
1.437110 18.156970 0.246700 -3.115144 -30.650723 -14.995664 -15.637060 11.565484 2.001734 3.471143 2.105777 3.657294 -14.394224 7.517949 5.863530 -0.199574 5.253583 2.770254 0.273590 0.174020 0.183880 18.675852 -5.735051 8.222244 3.018637 38.225586 -60.929528 -5.316672 -13.837726 105.110604 -3.324874 -15.509114 -0.296229 0.146970 0.027940 -0.038890 -4.293132 -3.514258 -9.732931 20.481060 -4.792990 45.825323 -3.720056 1.258384 2.829489 0.179088 -10.716606 -11.186170 -30.038256 13.035032 43.921269 -7.528750 3.766730 -17.878440 -25.859485 -16.172207 0.850823 -6.551583 -5.130327 -10.417463 20.791028 -72.545101 -15.029156 -3.397550 2.670734 0.699430 -0.140630 0.131040 0.026320 25.210523 23.872812 9.492494 34.682223 10.286638 -9.690366 17.762161 43.307765 4.573858 1.962713 -1.221301 -0.291060 0.446340 0.160610 -0.220980 
1.439370 18.156580 0.244830 -3.009347 -31.173209 -14.985141 -15.657303 11.549066 2.009689 3.472370 2.091101 3.507847 -14.748292 7.514668 5.570286 -0.193532 5.258605 2.765277 0.273390 0.176320 0.184110 18.665732 -5.677255 8.249977 3.668524 38.386090 -60.391613 -6.116913 -13.057541 105.554437 -3.319940 -15.464341 -0.285557 0.146900 0.023590 -0.039190 -4.275971 -3.564678 -9.755907 20.393116 -4.658548 46.058006 -3.580532 1.349183 2.722756 0.178333 -10.777481 -11.213495 -30.259814 13.240224 43.773924 -7.712380 3.900000 -17.923740 -25.953894 -16.135696 0.839019 -6.387602 -5.033879 -10.380219 19.938478 -72.316468 -14.382189 -3.400259 2.686998 0.697610 -0.142140 0.132750 0.024160 25.317321 23.930248 9.508946 34.408484 10.287153 -9.632620 18.129338 43.188108 4.693393 1.966140 -1.224562 -0.288270 0.443500 0.160680 -0.220720 
1.441190 18.152330 0.246040 -2.988816 -31.627030 -14.795654 -15.667991 11.521550 2.009043 3.529087 2.036253 3.230094 -15.082715 7.517008 5.383879 -0.195505 5.260882 2.762641 0.272160 0.176110 0.182230 18.663514 -5.639914 8.275870 4.243544 38.497690 -60.022152 -6.937315 -12.281771 106.043563 -3.317021 -15.437012 -0.279251 0.147570 0.024200 -0.038300 -4.287528 -3.568347 -9.769204 20.471499 -4.640879 46.008062 -3.583882 1.369014 2.622321 0.166124 -10.850027 -11.197432 -30.459122 13.446151 43.533898 -7.841950 4.019200 -17.940370 -25.969562 -15.998433 0.819875 -6.399956 -4.984722 -10.318318 19.250296 -71.998612 -13.832078 -3.405646 2.696633 0.696690 -0.140720 0.131980 0.023230 25.349578 23.835451 9.458545 34.370832 10.324338 -9.526442 18.653085 43.120467 4.863296 1.969713 -1.226260 -0.288530 0.442970 0.162680 -0.220550 
1.442540 18.147330 0.249160 -2.965512 -32.116415 -14.542687 -15.672334 11.489801 2.010999 3.634994 1.967332 2.919429 -15.491017 7.539904 5.234142 -0.198885 5.271164 2.756992 0.272310 0.176360 0.181400 18.664167 -5.625823 8.286549 4.861765 38.490742 -59.456764 -7.668952 -11.506163 106.317683 -3.308941 -15.390409 -0.269526 0.149820 0.024690 -0.038210 -4.317080 -3.535366 -9.772460 20.625897 -4.678346 45.842856 -3.710598 1.354274 2.495744 0.138847 -10.950818 -11.149141 -30.721261 13.699362 43.214136 -7.942160 4.138300 -17.997940 -26.013905 -15.788207 0.783394 -6.396706 -4.905309 -10.229555 18.544031 -71.622878 -13.259249 -3.411930 2.706531 0.696610 -0.140060 0.130660 0.022540 25.425182 23.648050 9.368616 34.427008 10.389622 -9.385900 19.288459 43.039627 5.064461 1.974499 -1.227608 -0.290020 0.443630 0.164700 -0.221240 
1.443580 18.142150 0.253650 -2.992265 -32.588460 -14.232783 -15.672866 11.455706 2.013226 3.777539 1.894971 2.638260 -15.856864 7.547481 5.053185 -0.208849 5.282503 2.752228 0.270990 0.175370 0.177910 18.667036 -5.623806 8.288657 5.453416 38.436375 -58.862915 -8.360796 -10.783376 106.581586 -3.301568 -15.354069 -0.261318 0.154260 0.028720 -0.041470 -4.357134 -3.484382 -9.769162 20.876339 -4.769136 45.607847 -3.879016 1.313315 2.359267 0.085815 -11.079527 -11.061095 -31.051742 13.962133 42.813809 -7.974160 4.208440 -18.085170 -26.102505 -15.521701 0.713827 -6.437388 -4.892843 -10.131171 18.072696 -71.219829 -12.840148 -3.419796 2.707791 0.698350 -0.138360 0.126030 0.021710 25.581749 23.379990 9.249046 34.473029 10.448850 -9.223476 19.860130 42.901117 5.245370 1.976549 -1.226028 -0.296550 0.449390 0.169270 -0.222870 
